<?xml version="1.0" encoding="iso-8859-1"?>
<!-- Uploaded to: SVG Repo, www.svgrepo.com, Generator: SVG Repo Mixer Tools -->
<!DOCTYPE svg PUBLIC "-//W3C//DTD SVG 1.1//EN" "http://www.w3.org/Graphics/SVG/1.1/DTD/svg11.dtd">
<svg fill="white" height="800px" width="800px" version="1.1" id="Capa_1" xmlns="http://www.w3.org/2000/svg" xmlns:xlink="http://www.w3.org/1999/xlink" 
	 viewBox="0 0 493.497 493.497" xml:space="preserve" color="white">
<g>
	<path d="M311.523,377.11H278.97v-73.566c0-5.918-4.797-10.715-10.715-10.715h-53.702c-5.918,0-10.715,4.797-10.715,10.715v73.566
		h-32.554c-4.334,0-8.241,2.61-9.899,6.614c-1.658,4.004-0.741,8.612,2.322,11.677l70.12,70.12c4.185,4.184,10.969,4.184,15.152,0
		l70.12-70.12c3.064-3.064,3.981-7.673,2.323-11.677C319.765,379.72,315.857,377.11,311.523,377.11z"/>
	<path d="M444.556,24.838H48.942C21.954,24.838,0,46.792,0,73.781v225.177c0,26.987,21.954,48.941,48.942,48.941h137.793v-32.628
		H71.326l101.501-101.499l45.817,45.819c7.513,7.511,17.493,11.645,28.104,11.645c10.609,0,20.591-4.135,28.104-11.645
		l45.819-45.819l101.491,101.499H296.026v32.628h148.529c26.988,0,48.941-21.954,48.941-48.941V73.781
		C493.497,46.792,471.544,24.838,444.556,24.838z M34.413,306.047c-1.061-2.167-1.785-4.516-1.785-7.09V73.781
		c0-0.064,0.032-0.111,0.032-0.175l117.097,117.097L34.413,306.047z M251.783,236.522c-2.692,2.691-7.378,2.691-10.069,0
		L62.667,57.466h368.172L251.783,236.522z M460.869,298.958c0,2.574-0.724,4.923-1.792,7.09L343.739,190.703L460.837,73.606
		c0,0.063,0.032,0.11,0.032,0.175V298.958z"/>
</g>
</svg>